<svg width="156" height="41" viewBox="0 0 156 41" fill="none" xmlns="http://www.w3.org/2000/svg">
<path d="M40.715 27.3215C39.187 27.3215 37.8181 28.0384 36.9427 29.1377C36.2901 29.9501 35.8922 31.0016 35.8922 32.1486C35.8922 34.8091 38.0569 36.9757 40.715 36.9757C42.2908 36.9757 43.6596 36.2269 44.5509 35.0799C44.6305 34.9843 44.6942 34.8728 44.7738 34.7772C45.2672 34.0284 45.5537 33.1204 45.5537 32.1645C45.5378 29.4722 43.389 27.3215 40.715 27.3215Z" fill="#21BF96"/>
<path d="M74.5537 4.71558C75.8112 4.71558 76.798 5.12978 77.5461 5.94226C78.2942 6.75473 78.6762 7.85396 78.6762 9.22402V15.9309H75.8589V9.39926C75.8589 8.74609 75.6997 8.2363 75.3814 7.86989C75.0631 7.50348 74.6174 7.32824 74.0285 7.32824C73.3918 7.32824 72.8984 7.53534 72.5323 7.96548C72.1821 8.39561 71.9911 9.00099 71.9911 9.79753V15.9309H69.1739V9.39926C69.1739 8.74609 69.0147 8.2363 68.6964 7.86989C68.378 7.50348 67.9324 7.32824 67.3434 7.32824C66.7227 7.32824 66.2133 7.53534 65.8473 7.96548C65.4812 8.39561 65.2902 9.00099 65.2902 9.79753V15.9309H62.4729V5.01826H65.2902V6.18122C65.9428 5.20943 66.9614 4.71558 68.3144 4.71558C69.6514 4.71558 70.6382 5.2413 71.2749 6.29273C72.0389 5.2413 73.1212 4.71558 74.5537 4.71558Z" fill="#ECF5FC"/>
<path d="M90.3592 14.5609C89.2451 15.6761 87.8762 16.2337 86.2527 16.2337C84.6451 16.2337 83.2763 15.6761 82.1621 14.5609C81.0479 13.4458 80.4908 12.0916 80.4908 10.4667C80.4908 8.85767 81.0479 7.48761 82.1621 6.37245C83.2763 5.25729 84.6292 4.69971 86.2527 4.69971C87.8603 4.69971 89.2292 5.25729 90.3592 6.37245C91.4734 7.48761 92.0305 8.84174 92.0305 10.4667C92.0464 12.0916 91.4893 13.4617 90.3592 14.5609ZM84.1676 12.6333C84.7247 13.2068 85.425 13.4776 86.2686 13.4776C87.1122 13.4776 87.8126 13.1909 88.3856 12.6333C88.9586 12.0598 89.2291 11.3429 89.2291 10.4667C89.2291 9.59049 88.9426 8.8736 88.3856 8.30009C87.8126 7.72658 87.1122 7.45575 86.2686 7.45575C85.425 7.45575 84.7247 7.74251 84.1676 8.30009C83.6105 8.8736 83.324 9.59049 83.324 10.4667C83.324 11.3429 83.5946 12.0757 84.1676 12.6333Z" fill="#ECF5FC"/>
<path d="M96.8375 6.89804C97.0922 6.19708 97.5379 5.67137 98.1427 5.32089C98.7475 4.97041 99.416 4.79517 100.164 4.79517V7.93355C99.3046 7.83797 98.5406 8.01321 97.8562 8.45927C97.1877 8.90534 96.8375 9.65409 96.8375 10.7055V15.9309H94.0203V5.0182H96.8375V6.89804V6.89804Z" fill="#ECF5FC"/>
<path d="M110.047 5.01833H112.864V15.931H110.047V14.6406C109.204 15.708 108.026 16.2337 106.498 16.2337C105.049 16.2337 103.792 15.6761 102.757 14.5609C101.723 13.4458 101.197 12.0916 101.197 10.4667C101.197 8.85767 101.723 7.48761 102.757 6.37245C103.792 5.25729 105.049 4.69971 106.498 4.69971C108.026 4.69971 109.204 5.22543 110.047 6.2928V5.01833ZM104.858 12.697C105.431 13.2705 106.147 13.5573 107.023 13.5573C107.898 13.5573 108.615 13.2705 109.188 12.697C109.761 12.1235 110.047 11.3907 110.047 10.4826C110.047 9.57456 109.761 8.84174 109.188 8.26823C108.615 7.69472 107.882 7.40796 107.023 7.40796C106.147 7.40796 105.431 7.69472 104.858 8.26823C104.285 8.84174 104.015 9.57456 104.015 10.4826C103.999 11.3748 104.285 12.1235 104.858 12.697Z" fill="#ECF5FC"/>
<path d="M115.03 15.9311V0.000244141H117.847V15.9311H115.03Z" fill="#ECF5FC"/>
<path d="M121.811 3.71195C121.349 3.71195 120.935 3.53671 120.601 3.20216C120.267 2.86761 120.092 2.45341 120.092 1.99141C120.092 1.52942 120.267 1.11521 120.601 0.764733C120.935 0.414254 121.349 0.239014 121.811 0.239014C122.288 0.239014 122.702 0.414254 123.036 0.764733C123.371 1.11521 123.546 1.52942 123.546 1.99141C123.546 2.45341 123.371 2.86761 123.036 3.20216C122.702 3.53671 122.288 3.71195 121.811 3.71195ZM120.41 15.9309V5.01828H123.227V15.9309H120.41Z" fill="#ECF5FC"/>
<path d="M128.305 8.12485C128.305 8.41161 128.496 8.65057 128.878 8.84174C129.26 9.01698 129.737 9.17629 130.278 9.31967C130.835 9.46305 131.377 9.63829 131.934 9.84539C132.491 10.0525 132.952 10.403 133.334 10.8968C133.716 11.3907 133.907 12.012 133.907 12.7448C133.907 13.86 133.494 14.7202 132.65 15.3256C131.806 15.931 130.772 16.2337 129.514 16.2337C127.27 16.2337 125.742 15.3734 124.93 13.6369L127.366 12.2669C127.684 13.2068 128.4 13.6847 129.498 13.6847C130.501 13.6847 131.01 13.3661 131.01 12.7448C131.01 12.4581 130.819 12.2191 130.437 12.0279C130.055 11.8527 129.578 11.6774 129.037 11.5341C128.48 11.3907 127.939 11.1995 127.381 10.9924C126.824 10.7694 126.363 10.4348 125.981 9.9569C125.599 9.47898 125.408 8.88953 125.408 8.17264C125.408 7.08934 125.806 6.245 126.602 5.6237C127.397 5.00239 128.384 4.69971 129.562 4.69971C130.453 4.69971 131.249 4.90681 131.981 5.30508C132.714 5.70335 133.287 6.27687 133.7 7.02562L131.313 8.33195C130.963 7.5832 130.39 7.21679 129.562 7.21679C129.196 7.21679 128.894 7.29644 128.655 7.45575C128.432 7.63099 128.305 7.83809 128.305 8.12485Z" fill="#ECF5FC"/>
<path d="M70.7816 24.1355H73.5989V35.0482H70.7816V33.7578C69.938 34.8251 68.7602 35.3509 67.2322 35.3509C65.7837 35.3509 64.5263 34.7933 63.4917 33.6781C62.4571 32.563 61.9319 31.2088 61.9319 29.5839C61.9319 27.9749 62.4571 26.6048 63.4917 25.4896C64.5263 24.3745 65.7837 23.8169 67.2322 23.8169C68.7602 23.8169 69.938 24.3426 70.7816 25.41V24.1355ZM65.5927 31.8142C66.1657 32.3877 66.882 32.6745 67.7574 32.6745C68.6328 32.6745 69.3491 32.3877 69.9221 31.8142C70.4951 31.2407 70.7816 30.5079 70.7816 29.5998C70.7816 28.6918 70.4951 27.9589 69.9221 27.3854C69.3491 26.8119 68.6169 26.5251 67.7574 26.5251C66.882 26.5251 66.1657 26.8119 65.5927 27.3854C65.0197 27.9589 64.7492 28.6918 64.7492 29.5998C64.7492 30.4919 65.0197 31.2407 65.5927 31.8142Z" fill="#ECF5FC"/>
<path d="M81.3346 35.3509C79.6952 35.3509 78.3263 34.7933 77.2281 33.6941C76.1298 32.5948 75.5886 31.2248 75.5886 29.5839C75.5886 27.9589 76.1298 26.5889 77.2281 25.4737C78.3263 24.3745 79.6952 23.8169 81.3346 23.8169C82.401 23.8169 83.356 24.0718 84.2314 24.5816C85.1069 25.0914 85.7595 25.7764 86.221 26.6367L83.8017 28.0545C83.5789 27.6085 83.2605 27.242 82.8148 26.9871C82.3692 26.7322 81.8758 26.5889 81.3187 26.5889C80.4751 26.5889 79.7747 26.8756 79.2177 27.4332C78.6606 27.9908 78.39 28.7077 78.39 29.5839C78.39 30.4441 78.6606 31.1451 79.2177 31.7186C79.7747 32.2762 80.4751 32.563 81.3187 32.563C81.8917 32.563 82.3851 32.4355 82.8308 32.1806C83.2764 31.9257 83.6107 31.5752 83.8176 31.1292L86.2529 32.5311C85.7754 33.3914 85.0909 34.0764 84.2314 34.5862C83.3719 35.096 82.401 35.3509 81.3346 35.3509Z" fill="#ECF5FC"/>
<path d="M96.2474 24.1355H99.0647V35.0482H96.2474V33.7578C95.4038 34.8251 94.226 35.3509 92.698 35.3509C91.2496 35.3509 89.9921 34.7933 88.9575 33.6781C87.923 32.563 87.3977 31.2088 87.3977 29.5839C87.3977 27.9749 87.923 26.6048 88.9575 25.4896C89.9921 24.3745 91.2496 23.8169 92.698 23.8169C94.226 23.8169 95.4038 24.3426 96.2474 25.41V24.1355ZM91.0426 31.8142C91.6156 32.3877 92.3319 32.6745 93.2073 32.6745C94.0827 32.6745 94.799 32.3877 95.372 31.8142C95.945 31.2407 96.2315 30.5079 96.2315 29.5998C96.2315 28.6918 95.945 27.9589 95.372 27.3854C94.799 26.8119 94.0668 26.5251 93.2073 26.5251C92.3319 26.5251 91.6156 26.8119 91.0426 27.3854C90.4696 27.9589 90.1991 28.6918 90.1991 29.5998C90.1991 30.4919 90.4856 31.2407 91.0426 31.8142Z" fill="#ECF5FC"/>
<path d="M109.491 19.7703H112.309V35.048H109.491V33.7576C108.664 34.825 107.486 35.3507 105.958 35.3507C104.493 35.3507 103.236 34.7931 102.201 33.6779C101.167 32.5628 100.642 31.2086 100.642 29.5837C100.642 27.9747 101.167 26.6046 102.201 25.4895C103.236 24.3743 104.493 23.8167 105.958 23.8167C107.486 23.8167 108.664 24.3424 109.491 25.4098V19.7703ZM104.302 31.814C104.875 32.3875 105.608 32.6743 106.467 32.6743C107.343 32.6743 108.059 32.3875 108.632 31.814C109.205 31.2405 109.475 30.5077 109.475 29.5996C109.475 28.6916 109.189 27.9587 108.632 27.3852C108.059 26.8117 107.343 26.525 106.467 26.525C105.592 26.525 104.875 26.8117 104.302 27.3852C103.729 27.9587 103.443 28.6916 103.443 29.5996C103.443 30.4918 103.729 31.2405 104.302 31.814Z" fill="#ECF5FC"/>
<path d="M117.243 30.7468C117.625 32.1168 118.643 32.8019 120.315 32.8019C121.397 32.8019 122.209 32.4354 122.75 31.7026L125.01 33.009C123.928 34.5702 122.352 35.3508 120.251 35.3508C118.452 35.3508 117.004 34.8092 115.906 33.7099C114.823 32.6107 114.266 31.2406 114.266 29.5838C114.266 27.9429 114.807 26.5729 115.874 25.4736C116.956 24.3744 118.325 23.8328 120.012 23.8328C121.604 23.8328 122.925 24.3903 123.975 25.4896C125.01 26.5888 125.535 27.9589 125.535 29.5997C125.535 29.9662 125.503 30.3485 125.424 30.7627H117.243V30.7468ZM117.211 28.5642H122.766C122.607 27.8155 122.272 27.2738 121.779 26.9074C121.27 26.541 120.713 26.3658 120.06 26.3658C119.296 26.3658 118.675 26.5569 118.182 26.9393C117.688 27.3216 117.37 27.8633 117.211 28.5642Z" fill="#ECF5FC"/>
<path d="M139.606 23.8328C140.863 23.8328 141.85 24.247 142.598 25.0594C143.346 25.8719 143.728 26.9711 143.728 28.3412V35.0481H140.911V28.5164C140.911 27.8633 140.752 27.3535 140.434 26.9871C140.115 26.6207 139.67 26.4454 139.081 26.4454C138.444 26.4454 137.951 26.6525 137.584 27.0827C137.234 27.5128 137.043 28.1182 137.043 28.9147V35.0481H134.226V28.5164C134.226 27.8633 134.067 27.3535 133.748 26.9871C133.43 26.6207 132.984 26.4454 132.396 26.4454C131.775 26.4454 131.265 26.6525 130.899 27.0827C130.533 27.5128 130.342 28.1182 130.342 28.9147V35.0481H127.525V24.1354H130.358V25.2984C131.011 24.3266 132.029 23.8328 133.382 23.8328C134.719 23.8328 135.706 24.3585 136.343 25.4099C137.075 24.3585 138.157 23.8328 139.606 23.8328Z" fill="#ECF5FC"/>
<path d="M152.992 24.1353H156L152.021 35.0639C151.448 36.6251 150.7 37.7562 149.761 38.4571C148.821 39.1581 147.66 39.4767 146.259 39.413V36.8003C147.007 36.8163 147.612 36.6569 148.057 36.3224C148.503 35.9878 148.853 35.4462 149.108 34.7134L144.635 24.1512H147.707L150.556 31.4794L152.992 24.1353Z" fill="#ECF5FC"/>
<path d="M35.8447 1.52954C31.8177 1.52954 28.1887 3.1067 25.4669 5.67158V21.953C25.5147 21.953 25.5465 21.953 25.5943 21.953C28.2524 21.953 30.417 19.7864 30.417 17.11V16.4568C30.5125 13.5255 32.916 11.1996 35.8606 11.1996C38.7893 11.1996 41.1927 13.5414 41.3041 16.4568C41.2882 19.643 40.2695 22.7814 39.1235 25.2666C38.5505 26.4773 37.9934 27.481 37.5955 28.166C37.3886 28.5006 37.2135 28.7555 37.118 28.9148C37.0543 28.9944 37.0225 29.0581 37.0066 29.0741C36.9907 29.09 36.9907 29.09 36.9907 29.09C36.9747 29.1059 36.9429 29.1537 36.9429 29.1537C37.8343 28.0386 39.1872 27.3376 40.7152 27.3376C43.3733 27.3376 45.538 29.5042 45.538 32.1647C45.538 33.1364 45.2515 34.0286 44.758 34.7773C44.774 34.7933 44.774 34.7933 44.774 34.7933V34.7773L44.7899 34.7614C44.8058 34.7455 44.8058 34.7455 44.8058 34.7295C44.8217 34.7136 44.8535 34.6658 44.8695 34.634C44.9331 34.5543 44.9968 34.4587 45.0923 34.3153C45.2674 34.0604 45.5061 33.6781 45.7926 33.2161C46.3656 32.2762 47.1137 30.9539 47.8618 29.329C49.3421 26.1428 50.9338 21.5388 50.9338 16.3931V16.3293L50.9497 16.2656C50.7268 8.09307 44.0577 1.52954 35.8447 1.52954Z" fill="#ECF5FC"/>
<path d="M25.435 5.70344C22.7292 3.12263 19.1001 1.52954 15.0891 1.52954C6.87605 1.52954 0.206918 8.17273 0 16.4727V16.5365V16.6002C0 22.9088 2.29202 28.5165 4.37711 32.3558C5.42762 34.3153 6.50996 35.9084 7.3058 37.0236C7.70372 37.5812 8.05389 38.0272 8.30856 38.3459C8.43589 38.5052 8.53139 38.6326 8.61097 38.7282C8.64281 38.776 8.67464 38.8079 8.70647 38.8397C8.72239 38.8556 8.72239 38.8556 8.73831 38.8716H8.75422L8.77014 38.8875C10.521 40.9267 13.577 41.1338 15.5825 39.3495C17.588 37.5652 17.795 34.4906 16.0441 32.4514C16.0441 32.4514 16.0441 32.4514 16.0441 32.4355C16.0441 32.4196 16.0282 32.4196 16.0123 32.4036C15.9804 32.3558 15.9168 32.2921 15.8372 32.1806C15.678 31.9735 15.4234 31.6549 15.1209 31.2247C14.5002 30.3645 13.6725 29.1219 12.8608 27.6084C11.1736 24.5178 9.69331 20.5988 9.6774 16.648C9.7729 13.6689 12.1763 11.3111 15.105 11.3111C18.0655 11.3111 20.469 13.7008 20.5486 16.6958C20.5645 17.4604 20.7714 18.1773 21.0897 18.8146C21.7582 20.6148 23.4613 21.9052 25.4828 21.953V5.67158C25.4509 5.68751 25.4509 5.68751 25.435 5.70344Z" fill="#21BF96"/>
</svg>
